<!-- Generated by IcoMoon.io -->
<svg version="1.1" xmlns="http://www.w3.org/2000/svg" width="1024" height="1024" viewBox="0 0 1024 1024">
<title></title>
<g id="icomoon-ignore">
</g>
<path fill="#00457c" d="M294.741 1024h-132.437c-28.331 0-46.336-22.571-39.936-50.347l6.357-28.757h88.363c28.416 0 57.003-22.741 63.232-50.432l45.397-195.925c6.4-27.648 34.816-50.347 63.147-50.347h37.675c161.664 0 287.317-33.237 377.173-99.84s134.827-153.6 134.827-261.76c0-48-8.32-87.68-25.088-118.997 0-0.683-0.683-1.323-0.683-1.963l5.76 3.2c32 19.84 56.32 45.397 73.003 77.397 17.237 32 25.515 71.68 25.515 119.083 0 108.16-44.757 195.157-134.997 261.76-89.6 65.92-215.68 99.157-376.917 99.157h-38.4c-28.16 0-56.917 22.4-63.317 50.603l-45.44 196.48c-6.357 27.52-34.56 49.92-62.72 49.92zM180.523 909.013h-132.48c-28.288 0-46.251-22.571-39.936-50.347l186.581-808.235c6.443-27.861 34.773-50.432 63.189-50.432h275.84c59.52 0 111.317 4.181 155.648 12.331 44.16 8.064 81.92 22.144 114.517 42.24 31.403 19.84 56.405 45.739 72.405 77.568 16.597 31.915 24.917 71.68 24.917 119.339 0 108.16-44.843 195.157-134.997 261.077-89.6 66.603-215.723 99.243-377.003 99.243h-37.675c-28.16 0-56.661 22.357-63.061 49.877l-45.269 195.797c-6.357 27.563-34.859 50.005-63.36 50.005zM498.219 167.936h-43.264c-28.416 0-56.832 22.571-63.147 50.261l-39.68 171.52c-6.4 27.648 11.52 50.304 39.68 50.304h32.683c70.997 0 126.72-14.635 166.4-43.563 39.637-29.269 59.52-70.571 59.52-124.245 0-35.413-12.843-61.653-38.4-78.507-25.6-17.237-64-25.813-114.603-25.813z"></path>
</svg>
